<?xml version="1.0" encoding="utf-8"?>
<!-- Generator: Adobe Illustrator 21.0.0, SVG Export Plug-In . SVG Version: 6.00 Build 0)  -->
<svg version="1.1" id="Layer_1" xmlns="http://www.w3.org/2000/svg" xmlns:xlink="http://www.w3.org/1999/xlink" x="0px" y="0px"
	 viewBox="0 0 20 20" style="enable-background:new 0 0 20 20;" xml:space="preserve">
<style type="text/css">
	.st0{fill:#4D4D4D;}
	.st1{font-family:'MyriadPro-Regular';}
	.st2{font-size:5px;}
</style>
<g>
	<path class="st0" d="M17.5,8.2H2.5c-0.6,0-1.1-0.5-1.1-1.1v0C1.4,6.5,1.9,6,2.5,6h14.9c0.6,0,1.1,0.5,1.1,1.1v0
		C18.6,7.7,18.1,8.2,17.5,8.2z"/>
	<path class="st0" d="M17.5,12.2H2.5c-0.6,0-1.1-0.5-1.1-1.1v0c0-0.6,0.5-1.1,1.1-1.1h14.9c0.6,0,1.1,0.5,1.1,1.1v0
		C18.6,11.7,18.1,12.2,17.5,12.2z"/>
	<path class="st0" d="M17.5,4.1H2.5C1.9,4.1,1.4,3.6,1.4,3v0c0-0.6,0.5-1.1,1.1-1.1h14.9c0.6,0,1.1,0.5,1.1,1.1v0
		C18.6,3.6,18.1,4.1,17.5,4.1z"/>
	<text transform="matrix(1 0 0 1 4.4651 17.793)" class="st0 st1 st2">SITES</text>
</g>
</svg>
