<?xml version="1.0" standalone="no"?><!-- Generator: Gravit.io --><svg xmlns="http://www.w3.org/2000/svg" xmlns:xlink="http://www.w3.org/1999/xlink" style="isolation:isolate" width="22" height="16"><path d=" M 16.766832721561805 10.805763001824252 L 13.568162838668858 10.805763001824252 L 13.568162838668858 13.098826561034901 C 13.568162838668858 14.229980120049394 13.229841985670566 15.050151884893738 12.560035044381017 15.542254943800346 C 11.507481279497439 16.314583355695436 10.079015455726871 15.880575796798638 10.017502573363545 15.86007150267753 L 9.586912396820264 15.723376208536806 L 9.586912396820264 12.459776060927014 C 9.586912396820264 11.670360737264332 9.156322220276984 10.96979735479312 8.305394014250975 10.371755442927451 C 8.02858604361601 10.17696464877692 7.9602383965456465 9.79421782518289 8.155029190696178 9.513992472194406 C 8.34981998484671 9.23718450155944 8.732566808440737 9.16883685448908 9.012792161429221 9.36362764863961 C 10.195206455746487 10.19405156054451 10.8205874264403 11.263692237195677 10.8205874264403 12.459776060927014 L 10.8205874264403 14.766509149551736 C 11.12815183825693 14.79384820837988 11.534820338325584 14.77334391425877 11.835549985435179 14.554631443633612 C 12.170453456079953 14.308579914180308 12.341322573755859 13.81989423762722 12.341322573755859 13.105661325741936 L 12.341322573755859 9.582340119264769 L 16.770250103915323 9.582340119264769 C 17.470813486386536 9.582340119264769 18.04151633942406 9.025306795641317 18.062020633545167 8.328160795523624 L 17.1427447804488 2.5562020004315453 L 17.139327398095283 2.535697706310435 C 17.098318809853062 2.214463765079733 16.978710427479932 1.233675029620036 15.481896956638998 1.233675029620036 L 8.589036749592976 1.233675029620036 C 7.912395043596391 1.233675029620036 7.362196484679975 1.7838735885364514 7.362196484679975 2.4605152945330353 L 7.362196484679975 8.167543824908272 C 7.362196484679975 9.209845442731293 6.514685661007485 10.060773648757303 5.468966660830945 10.060773648757303 L 4.604368925390864 10.060773648757303 C 3.562067307567842 10.060773648757303 2.711139101541834 9.213262825084811 2.711139101541834 8.167543824908272 L 2.711139101541834 2.3135678533317563 C 2.711139101541834 1.271266235508735 3.558649925214324 0.4203380294827266 4.604368925390864 0.4203380294827266 C 4.942689778389157 0.4203380294827266 5.219497749024123 0.6971460001176943 5.219497749024123 1.0354668531159863 C 5.219497749024123 1.3737877061142765 4.942689778389157 1.6505956767492442 4.604368925390864 1.6505956767492442 C 4.238709013564427 1.6505956767492442 3.9413967488083523 1.9479079415053189 3.9413967488083523 2.3135678533317563 L 3.9413967488083523 8.167543824908272 C 3.9413967488083523 8.533203736734709 4.238709013564427 8.830516001490786 4.604368925390864 8.830516001490786 L 5.4689666608309455 8.830516001490786 C 5.834626572657383 8.830516001490786 6.131938837413458 8.533203736734709 6.131938837413458 8.167543824908272 L 6.131938837413458 2.3135678533317563 C 6.131938837413458 2.265724500382504 6.138773602120494 2.2144637650797314 6.149025749181048 2.1700377944839957 C 6.292555808028808 0.9500322942780333 7.331440043498312 0 8.589036749592976 0 L 15.47506219193196 0 C 16.172208192049652 0 16.79417178038995 0.1674517353223841 17.265770545175446 0.4852682941995692 C 17.87406460410167 0.8919367942682239 18.249976662988658 1.5446568237901825 18.352498133594203 2.371663353341564 L 19.278608751397613 8.177795971968825 C 19.28544351610465 8.211969795504007 19.288860898458168 8.249561001392706 19.288860898458168 8.283734824927887 C 19.288860898458168 9.674609442809757 18.15770733944367 10.805763001824252 16.766832721561805 10.805763001824252 Z " fill="rgb(71,71,71)" stroke-width="1.0554524840239126" stroke="rgba(0,0,0,0)" stroke-linejoin="miter" stroke-linecap="butt"/></svg>